<?xml version="1.0" encoding="UTF-8" standalone="no"?>
<svg
   xmlns:dc="http://purl.org/dc/elements/1.1/"
   xmlns:cc="http://creativecommons.org/ns#"
   xmlns:rdf="http://www.w3.org/1999/02/22-rdf-syntax-ns#"
   xmlns:svg="http://www.w3.org/2000/svg"
   xmlns="http://www.w3.org/2000/svg"
   xmlns:sodipodi="http://sodipodi.sourceforge.net/DTD/sodipodi-0.dtd"
   xmlns:inkscape="http://www.inkscape.org/namespaces/inkscape"
   width="32"
   height="32"
   viewBox="0 0 8.4666665 8.466667"
   version="1.1"
   id="svg8"
   inkscape:version="1.0.2-2 (e86c870879, 2021-01-15)"
   sodipodi:docname="favicon.svg"
   inkscape:export-filename="C:\Users\WINDOWS\Documents\ETEC\Imagens\CL.png"
   inkscape:export-xdpi="33"
   inkscape:export-ydpi="33">
  <defs
     id="defs2">
    <inkscape:path-effect
       effect="bspline"
       id="path-effect2509"
       is_visible="true"
       lpeversion="1"
       weight="33.333333"
       steps="2"
       helper_size="0"
       apply_no_weight="true"
       apply_with_weight="true"
       only_selected="false" />
    <inkscape:path-effect
       effect="bspline"
       id="path-effect1402"
       is_visible="true"
       lpeversion="1"
       weight="33.333333"
       steps="2"
       helper_size="0"
       apply_no_weight="true"
       apply_with_weight="true"
       only_selected="false" />
    <inkscape:path-effect
       effect="bspline"
       id="path-effect1400"
       is_visible="true"
       lpeversion="1"
       weight="33.333333"
       steps="2"
       helper_size="0"
       apply_no_weight="true"
       apply_with_weight="true"
       only_selected="false" />
    <inkscape:path-effect
       effect="bspline"
       id="path-effect1398"
       is_visible="true"
       lpeversion="1"
       weight="33.333333"
       steps="2"
       helper_size="0"
       apply_no_weight="true"
       apply_with_weight="true"
       only_selected="false" />
    <inkscape:path-effect
       effect="bspline"
       id="path-effect1396"
       is_visible="true"
       lpeversion="1"
       weight="33.333333"
       steps="2"
       helper_size="0"
       apply_no_weight="true"
       apply_with_weight="true"
       only_selected="false" />
    <inkscape:path-effect
       effect="bspline"
       id="path-effect1038"
       is_visible="true"
       lpeversion="1"
       weight="33.333333"
       steps="2"
       helper_size="0"
       apply_no_weight="true"
       apply_with_weight="true"
       only_selected="false" />
    <inkscape:path-effect
       effect="bspline"
       id="path-effect1015"
       is_visible="true"
       lpeversion="1"
       weight="33.333333"
       steps="2"
       helper_size="0"
       apply_no_weight="true"
       apply_with_weight="true"
       only_selected="false" />
    <inkscape:path-effect
       effect="bspline"
       id="path-effect1007"
       is_visible="true"
       lpeversion="1"
       weight="33.333333"
       steps="2"
       helper_size="0"
       apply_no_weight="true"
       apply_with_weight="true"
       only_selected="false" />
    <inkscape:path-effect
       effect="bspline"
       id="path-effect996"
       is_visible="true"
       lpeversion="1"
       weight="33.333333"
       steps="2"
       helper_size="0"
       apply_no_weight="true"
       apply_with_weight="true"
       only_selected="false" />
    <inkscape:path-effect
       effect="bspline"
       id="path-effect970"
       is_visible="true"
       lpeversion="1"
       weight="33.333333"
       steps="2"
       helper_size="0"
       apply_no_weight="true"
       apply_with_weight="true"
       only_selected="false" />
    <inkscape:path-effect
       effect="bspline"
       id="path-effect960"
       is_visible="true"
       lpeversion="1"
       weight="33.333333"
       steps="2"
       helper_size="0"
       apply_no_weight="true"
       apply_with_weight="true"
       only_selected="false" />
    <inkscape:path-effect
       effect="bspline"
       id="path-effect936"
       is_visible="true"
       lpeversion="1"
       weight="33.333333"
       steps="2"
       helper_size="0"
       apply_no_weight="true"
       apply_with_weight="true"
       only_selected="false" />
    <inkscape:path-effect
       effect="bspline"
       id="path-effect910"
       is_visible="true"
       lpeversion="1"
       weight="33.333333"
       steps="2"
       helper_size="0"
       apply_no_weight="true"
       apply_with_weight="true"
       only_selected="false" />
    <inkscape:path-effect
       effect="bspline"
       id="path-effect886"
       is_visible="true"
       lpeversion="1"
       weight="33.333333"
       steps="2"
       helper_size="0"
       apply_no_weight="true"
       apply_with_weight="true"
       only_selected="false" />
    <inkscape:path-effect
       effect="bspline"
       id="path-effect860"
       is_visible="true"
       lpeversion="1"
       weight="33.333333"
       steps="2"
       helper_size="0"
       apply_no_weight="true"
       apply_with_weight="true"
       only_selected="false" />
    <inkscape:path-effect
       effect="bspline"
       id="path-effect837"
       is_visible="true"
       lpeversion="1"
       weight="33.333333"
       steps="2"
       helper_size="0"
       apply_no_weight="true"
       apply_with_weight="true"
       only_selected="false" />
  </defs>
  <sodipodi:namedview
     id="base"
     pagecolor="#ffffff"
     bordercolor="#666666"
     borderopacity="1.0"
     inkscape:pageopacity="0.0"
     inkscape:pageshadow="2"
     inkscape:zoom="8.0000004"
     inkscape:cx="24.894252"
     inkscape:cy="26.427081"
     inkscape:document-units="mm"
     inkscape:current-layer="layer1"
     inkscape:document-rotation="0"
     showgrid="false"
     units="px"
     showguides="false"
     inkscape:snap-global="false"
     inkscape:window-width="1366"
     inkscape:window-height="705"
     inkscape:window-x="-8"
     inkscape:window-y="-8"
     inkscape:window-maximized="1" />
  <metadata
     id="metadata5">
    <rdf:RDF>
      <cc:Work
         rdf:about="">
        <dc:format>image/svg+xml</dc:format>
        <dc:type
           rdf:resource="http://purl.org/dc/dcmitype/StillImage" />
        <dc:title />
      </cc:Work>
    </rdf:RDF>
  </metadata>
  <g
     inkscape:label="Layer 1"
     inkscape:groupmode="layer"
     id="layer1">
    <path
       style="fill:#ef745c;fill-opacity:1;fill-rule:evenodd;stroke:#632245;stroke-width:0;stroke-linejoin:round;stroke-miterlimit:4;stroke-dasharray:none;stroke-opacity:1;paint-order:fill markers stroke"
       d=""
       id="path1446"
       transform="scale(0.26458333)" />
    <path
       style="fill:#632245;fill-opacity:1;fill-rule:evenodd;stroke:none;stroke-width:0;stroke-linejoin:round;stroke-miterlimit:4;stroke-dasharray:none;stroke-opacity:1;paint-order:fill markers stroke"
       d=""
       id="path2492"
       transform="scale(0.26458333)" />
    <circle
       style="fill:#ef745c;fill-rule:evenodd;stroke:#632245;stroke-width:0.229099;stroke-linejoin:round;stroke-miterlimit:4;stroke-dasharray:none;stroke-opacity:1;paint-order:fill markers stroke"
       id="path688"
       cx="4.1982541"
       cy="4.1982541"
       r="4.1133466" />
    <circle
       style="fill:#34073d;fill-opacity:1;fill-rule:evenodd;stroke:#923d4d;stroke-width:0.256781;stroke-linejoin:round;stroke-miterlimit:4;stroke-dasharray:none;stroke-opacity:1;paint-order:fill markers stroke"
       id="path1513"
       cx="4.1744151"
       cy="4.1978016"
       r="3.1325371" />
    <path
       style="fill:#34073d;fill-opacity:1;fill-rule:evenodd;stroke:#632245;stroke-width:0;stroke-linejoin:round;stroke-miterlimit:4;stroke-dasharray:none;stroke-opacity:1;paint-order:fill markers stroke"
       d="M 4.2360826,5.7606815 C 3.688036,5.6670965 3.4027648,5.614588 3.3306228,5.5940201 3.2910151,5.5827267 3.2112993,5.5695608 3.1534744,5.564737 3.0869933,5.5592237 3.0372917,5.5497495 3.0182782,5.5390481 2.9904225,5.523344 2.992497,5.5213648 3.0471486,5.5116703 3.2071582,5.4832859 3.2629524,5.3558551 3.2272907,5.1002432 3.2131187,4.998106 3.2115867,4.9220328 3.2235127,4.8981165 3.2458479,4.8531912 3.3270224,4.7901161 3.4121783,4.7514989 l 0.06025,-0.027322 0.235339,0.00311 c 0.1294377,0.0017 0.3577569,0.00843 0.5073817,0.014906 0.3663773,0.015928 0.813741,0.027541 1.0620154,0.027578 l 0.204034,3.84e-5 v 0.5162925 0.5162947 l -0.3714419,6.86e-5 c -0.2042914,3.84e-5 -0.4185304,0.00191 -0.4760776,0.00417 -0.095366,0.00373 -0.1305915,-3.557e-4 -0.3976022,-0.045936 z"
       id="path1596" />
    <path
       style="fill:#34073d;fill-opacity:1;fill-rule:evenodd;stroke:#632245;stroke-width:0;stroke-linejoin:round;stroke-miterlimit:4;stroke-dasharray:none;stroke-opacity:1;paint-order:fill markers stroke"
       d="M 4.9081376,4.9550629 C 4.8780845,4.9267549 4.5929637,4.8000457 4.3900674,4.7247489 4.2938054,4.6890247 4.0161918,4.595439 3.7731449,4.5167771 2.9583264,4.2530624 2.8821943,4.1725706 3.3036063,4.0203607 3.6426371,3.8979071 3.5339838,3.8729552 2.3669682,3.8052284 2.2425376,3.7980001 2.1741103,3.789095 2.1741103,3.7801314 c 0,-0.00768 0.1431297,-0.050385 0.3180911,-0.094968 0.733775,-0.1869909 0.9510364,-0.3014027 0.9575177,-0.5042412 l 0.0016,-0.049959 0.050035,0.027476 c 0.078289,0.042995 0.1401543,0.034133 0.2016592,-0.028895 0.045991,-0.047165 0.050241,-0.076947 0.026103,-0.1823617 -0.015742,-0.069295 -0.023641,-0.148347 -0.017274,-0.1756718 0.020641,-0.088858 0.1870604,-0.1560498 0.4833948,-0.1950878 0.1729987,-0.022792 0.5989022,-0.050006 0.7825674,-0.050006 0.099873,0 0.1144451,0.00317 0.1144451,0.025107 0,0.013805 -0.03002,0.057558 -0.067103,0.097226 -0.073128,0.07863 -0.086034,0.1274774 -0.033655,0.1274774 0.018522,0 0.093863,-0.016255 0.1676874,-0.036133 l 0.1342696,-0.03614 -4.19e-5,0.1535483 c -3.84e-5,0.084453 -0.010028,0.3516104 -0.022127,0.5936882 l -0.022127,0.4401401 -0.1611018,0.026798 c -0.088611,0.014744 -0.1872444,0.038681 -0.2191771,0.053198 -0.055177,0.025089 -0.055107,0.027043 0.00137,0.039342 0.032694,0.00715 0.13372,0.015989 0.2245158,0.019706 l 0.1651103,0.00678 V 4.4899326 4.942711 L 5.1029528,4.958639 C 4.9121332,4.978017 4.9330437,4.978385 4.9082106,4.955109 Z"
       id="path1594" />
    <g
       id="g136"
       transform="matrix(0.6795382,0,0,0.6795382,-2.9335622,-3.0895445)">
      <g
         id="g1329"
         transform="matrix(3.5602052,0,0,3.5602052,-10.434031,-3.3503715)">
        <path
           style="fill:#923d4d;fill-opacity:1;fill-rule:evenodd;stroke:none;stroke-width:0;stroke-linejoin:round;stroke-miterlimit:4;stroke-dasharray:none;stroke-opacity:1;paint-order:fill markers stroke"
           d="M 5.6000755,5.060944 C 5.4723212,5.042073 5.3688608,5.008994 5.317292,4.97053 5.268947,4.93447 5.262204,4.909785 5.262241,4.768992 5.2622612,4.693872 5.266821,4.6253586 5.273176,4.6048934 5.291117,4.5470644 5.347106,4.475596 5.4881263,4.3305125 5.7387731,4.0726432 5.7738024,4.0269388 5.7738024,3.9577806 5.7738024,3.9072396 5.7268284,3.8477671 5.5283342,3.647 5.3329858,3.449415 5.2906712,3.4000899 5.2708738,3.3468837 c -0.018046,-0.0485 -0.030121,-0.2501328 -0.014979,-0.2501328 0.0059,0 0.029996,0.00923 0.053519,0.020491 0.062592,0.02999 0.1819707,0.063807 0.2769575,0.078454 0.1873864,0.028894 0.4627204,0.024485 0.6403458,-0.010255 0.082426,-0.016121 0.211122,-0.057921 0.2529804,-0.082167 0.043751,-0.025343 0.048767,-0.012877 0.043193,0.1073407 C 6.5157563,3.3646679 6.5084727,3.3761537 6.2410803,3.6555038 6.0619574,3.8426364 6.0095492,3.90971 6.0095492,3.9518239 c 0,0.054408 0.050324,0.1278153 0.1751226,0.2554449 0.2968824,0.3036201 0.3150916,0.3248355 0.3341008,0.389263 0.00567,0.019194 0.010713,0.094868 0.011217,0.1681625 0.00104,0.1514202 -0.00572,0.1732744 -0.065068,0.2102434 -0.050398,0.031392 -0.1845334,0.070638 -0.2933267,0.085821 -0.1212727,0.016926 -0.4574492,0.017035 -0.5715194,1.853e-4 z"
           id="path1305" />
        <path
           style="fill:#923d4d;fill-opacity:1;fill-rule:evenodd;stroke:none;stroke-width:0;stroke-linejoin:round;stroke-miterlimit:4;stroke-dasharray:none;stroke-opacity:1;paint-order:fill markers stroke"
           d="M 5.7662734,3.1851796 C 5.5296121,3.1687681 5.273157,3.0998346 5.2436509,3.044702 5.2230809,3.006266 5.3117959,2.956651 5.4575957,2.9250516 c 0.2628966,-0.056979 0.7244508,-0.050084 0.9415423,0.014064 0.061845,0.018274 0.1272158,0.052655 0.1340675,0.07051 0.019922,0.051918 -0.1532718,0.1242273 -0.373829,0.1560746 -0.1098449,0.015861 -0.3054828,0.025555 -0.3931031,0.019479 z"
           id="path1307" />
        <path
           d="m 5.7902076,2.8117665 c -0.124581,0.00453 -0.2276825,0.017184 -0.3121685,0.037947 -0.050835,0.01241 -0.081383,0.02315 -0.1190918,0.041527 -0.067064,0.032697 -0.1054882,0.072553 -0.1231491,0.126729 -0.00477,0.015036 -0.00525,0.022673 -0.00644,0.077565 -0.00119,0.070166 0.00263,0.1725518 0.00788,0.2124082 0.010024,0.075894 0.024105,0.1202851 0.056324,0.1773251 0.031265,0.055131 0.055847,0.083531 0.1847235,0.2145562 0.1818597,0.1849623 0.2241027,0.2312625 0.2307852,0.2529806 0.00501,0.016706 -0.0043,0.034845 -0.040334,0.079474 -0.023389,0.028878 -0.03389,0.040334 -0.1620508,0.1768478 -0.1090758,0.1159893 -0.1389084,0.1496405 -0.1692183,0.1904516 -0.082815,0.1116933 -0.099999,0.1804276 -0.097374,0.3916426 0.00119,0.097851 0.00358,0.1105 0.030071,0.1584709 0.055608,0.1011922 0.2193294,0.1601415 0.485675,0.1746998 0.068018,0.00358 0.2582312,0.00143 0.3178964,-0.00358 0.2014299,-0.017422 0.3334094,-0.05704 0.4097809,-0.1226718 0.021002,-0.018138 0.036277,-0.038424 0.051073,-0.06778 0.01957,-0.03914 0.021957,-0.051312 0.022434,-0.1164665 C 6.5584573,4.5983824 6.5436603,4.5229656 6.4828017,4.4315584 6.4458093,4.3761891 6.4131127,4.3387193 6.277792,4.198148 6.1565522,4.072135 6.1322088,4.0456437 6.108104,4.0136631 6.087341,3.9862171 6.07851,3.9697491 6.07851,3.9590101 c 0,-0.010501 0.00979,-0.026491 0.034129,-0.056801 C 6.138653,3.8699901 6.152257,3.8554321 6.2856682,3.7162922 6.4269555,3.5687998 6.448435,3.5442177 6.4761196,3.4974401 c 0.030787,-0.051789 0.047016,-0.0926 0.05704,-0.1427192 0.010978,-0.055131 0.011933,-0.071598 0.011933,-0.2031005 0,-0.139378 4.774e-4,-0.1348435 -0.018377,-0.1711199 C 6.486143,2.902219 6.3675285,2.8482816 6.1835209,2.8248928 6.0789874,2.8112892 5.9298243,2.8065159 5.7902076,2.8117665 Z m 0.2286372,0.085679 c 0.2069191,0.010501 0.36539,0.04821 0.4081103,0.097135 0.027923,0.031503 -0.021957,0.072553 -0.1272063,0.1042948 -0.2405703,0.07303 -0.5446243,0.078042 -0.794025,0.013126 -0.075656,-0.01957 -0.1248197,-0.040095 -0.1489245,-0.061813 -0.019809,-0.018138 -0.022911,-0.033651 -0.010024,-0.04821 0.017661,-0.019809 0.047732,-0.036038 0.096896,-0.052267 0.086395,-0.028401 0.2023845,-0.045584 0.3567981,-0.052983 0.037708,-0.00191 0.1770865,-0.00143 0.2183754,7.161e-4 z M 6.4732553,3.1831226 C 6.4761153,3.2929067 6.4687253,3.35114 6.4467643,3.3950536 6.4267173,3.4349099 6.3758823,3.4976781 6.2694392,3.61319 6.2412772,3.643977 6.1983182,3.690755 6.1742132,3.7170075 6.0706344,3.8296555 6.0360285,3.8735691 6.0143104,3.918676 c -0.00788,0.016706 -0.00859,0.019809 -0.00859,0.039618 2.386e-4,0.025059 0.00477,0.038186 0.027207,0.07852 0.027207,0.048925 0.040334,0.0642 0.197134,0.2305465 0.1336501,0.1417646 0.1620508,0.1735065 0.1952246,0.2183748 0.031981,0.042959 0.040334,0.062291 0.049641,0.1145572 0.00525,0.030549 0.01074,0.1665854 0.00835,0.2159882 -0.00382,0.083531 -0.029117,0.1159892 -0.1188532,0.1536977 -0.08735,0.036515 -0.1973726,0.058472 -0.3431945,0.068496 -0.054415,0.00382 -0.2167041,0.00382 -0.2684935,2.387e-4 C 5.5945056,5.0272562 5.4789937,5.0007648 5.3923598,4.9561352 5.3620499,4.9406223 5.342957,4.922484 5.3305466,4.897186 5.3174203,4.8706946 5.315511,4.855659 5.3138403,4.7721276 5.3109764,4.6229645 5.3205229,4.5625833 5.355606,4.5100779 5.3887799,4.4601977 5.4145553,4.4303651 5.565389,4.2673597 5.6940273,4.1282203 5.7011871,4.1201059 5.7279171,4.0845454 5.7491579,4.0561447 5.7749333,4.0096058 5.7811385,3.988365 5.7916396,3.9523272 5.7792292,3.918676 5.732213,3.8561469 5.7030964,3.8174838 5.6813782,3.793379 5.5692076,3.6754805 5.4281589,3.527272 5.3906892,3.4852677 5.3560833,3.4372969 5.330308,3.4014977 5.3210002,3.3800182 5.3121697,3.3365819 c -0.00382,-0.018138 -0.00525,-0.040334 -0.00716,-0.1093067 -0.00143,-0.047732 -0.00191,-0.090453 -0.00119,-0.094987 0.00239,-0.011694 0.00835,-0.01074 0.040334,0.00597 0.079474,0.041766 0.179473,0.072076 0.2916437,0.088305 0.1391393,0.020048 0.3186124,0.021002 0.4677755,0.00239 0.1367527,-0.017184 0.2544125,-0.053221 0.3448651,-0.1057268 0.00597,-0.00334 0.013604,-0.00621 0.016945,-0.00621 h 0.00621 z"
           id="path1211"
           style="fill:#632245;fill-opacity:1;stroke:none;stroke-width:0.1;stroke-miterlimit:4;stroke-dasharray:none;stroke-opacity:1" />
      </g>
      <g
         id="g1333"
         transform="matrix(3.5602052,0,0,3.5602052,-4.5853722,1.3374058)">
        <path
           d="m 4.6387844,2.0986328 c -0.034606,0.021002 -0.094987,0.051312 -0.1322182,0.066109 -0.2038164,0.082099 -0.3921199,0.07303 -0.6004709,-0.028639 -0.01957,-0.00955 -0.048448,-0.024821 -0.063722,-0.034129 -0.015513,-0.00907 -0.028162,-0.016229 -0.028162,-0.015513 0,4.773e-4 0.00835,0.012888 0.018615,0.027446 0.010024,0.014558 0.018138,0.027446 0.0179,0.028401 -0.00143,0.00549 0.056085,0.070882 0.1766091,0.2009525 0.1124093,0.1212398 0.1324569,0.1439126 0.1553683,0.1737452 0.032219,0.041766 0.034128,0.048448 0.055131,0.1909288 0.00358,0.022911 0.00716,0.042959 0.00811,0.044868 0.00191,0.00358 0.0074,-0.028639 0.014797,-0.087827 0.00263,-0.021718 0.0074,-0.052028 0.010501,-0.067302 0.01241,-0.06062 0.014797,-0.063961 0.1861556,-0.2548899 0.1272063,-0.1420032 0.168256,-0.1897354 0.1737452,-0.2028618 0.00143,-0.00334 0.01074,-0.017661 0.020286,-0.031742 0.00979,-0.014081 0.017422,-0.026014 0.016945,-0.026491 -4.774e-4,-2.386e-4 -0.013842,0.0074 -0.029594,0.016945 z"
           id="path1213-6"
           style="fill:#ef745c;fill-opacity:1;stroke:none;stroke-width:0.00023866" />
        <path
           d="m 4.2447552,3.119863 c -0.00979,0.024105 -0.025775,0.055369 -0.035799,0.070405 -0.01957,0.029594 -0.040572,0.042004 -0.2675389,0.1603802 -0.029117,0.015274 -0.061813,0.033174 -0.072792,0.040095 -0.068257,0.04272 -0.1109774,0.087589 -0.1272063,0.1336501 -0.00334,0.00907 -0.0031,0.00931 0.00358,0.013365 0.00382,0.00215 0.00644,0.00477 0.00597,0.00573 -0.00716,0.011217 0.094271,0.048448 0.1804277,0.066348 0.1241037,0.025537 0.2737441,0.03389 0.432931,0.023866 0.1341275,-0.00835 0.2560832,-0.03389 0.3489223,-0.072792 0.025298,-0.010501 0.036515,-0.0179 0.036515,-0.023866 0,-0.00167 0.00239,-0.00453 0.00549,-0.00597 0.00286,-0.00143 0.00549,-0.0031 0.00597,-0.00334 C 4.762895,3.5263043 4.749769,3.4976633 4.741893,3.4852523 4.729244,3.4654433 4.699411,3.4353723 4.672681,3.4153243 4.639507,3.3902653 4.605617,3.3711723 4.5015611,3.3184283 4.4068131,3.2706963 4.3547846,3.2422953 4.3268612,3.2241573 c -0.025775,-0.016945 -0.03747,-0.031742 -0.059188,-0.07494 l -0.019093,-0.038424 z"
           id="path1215-5"
           style="fill:#ef745c;fill-opacity:1;stroke:none;stroke-width:0.00023866;stroke-opacity:1" />
      </g>
    </g>
  </g>
</svg>
